<svg xmlns="http://www.w3.org/2000/svg" viewBox="0 0 608 608" width="608" height="608" preserveAspectRatio="xMidYMid meet" style="width: 100%; height: 100%; transform: translate3d(0px, 0px, 0px);"><defs><clipPath id="__lottie_element_2"><rect width="608" height="608" x="0" y="0"></rect></clipPath></defs><g clip-path="url(#__lottie_element_2)"><g transform="matrix(1.4299999475479126,0,0,1.4299999475479126,358.3399963378906,304)" opacity="0.0025731742687197822" style="display: none;"><g opacity="1" transform="matrix(1,0,0,1,-38,0)"><path fill="rgb(86,242,195)" fill-opacity="1" d=" M0,-182 C-100.51599884033203,-182 -182,-100.51599884033203 -182,0 C-182,100.51599884033203 -100.51599884033203,182 0,182 C100.51599884033203,182 182,100.51599884033203 182,0 C182,-100.51599884033203 100.51599884033203,-182 0,-182z"></path><path stroke-linecap="butt" stroke-linejoin="miter" fill-opacity="0" stroke-miterlimit="4" stroke="rgb(56,89,131)" stroke-opacity="1" stroke-width="0" d=" M0,-182 C-100.51599884033203,-182 -182,-100.51599884033203 -182,0 C-182,100.51599884033203 -100.51599884033203,182 0,182 C100.51599884033203,182 182,100.51599884033203 182,0 C182,-100.51599884033203 100.51599884033203,-182 0,-182z"></path></g></g><g transform="matrix(1.0700000524520874,0,0,1.0700000524520874,344.6600036621094,304)" opacity="1" style="display: block;"><g opacity="1" transform="matrix(1,0,0,1,-38,0)"><path stroke-linecap="round" stroke-linejoin="round" fill-opacity="0" stroke="rgb(86,242,195)" stroke-opacity="1" stroke-width="25" d=" M0,-182 C-100.51599884033203,-182 -182,-100.51599884033203 -182,0 C-182,100.51599884033203 -100.51599884033203,182 0,182 C100.51599884033203,182 182,100.51599884033203 182,0 C182,-100.51599884033203 100.51599884033203,-182 0,-182z"></path></g></g><g transform="matrix(1,0,0,1,342,304)" opacity="1" style="display: block;"><g opacity="1" transform="matrix(1,0,0,1,-38,0)"><path fill="rgb(86,242,195)" fill-opacity="1" d=" M0,-182 C-100.51599884033203,-182 -182,-100.51599884033203 -182,0 C-182,100.51599884033203 -100.51599884033203,182 0,182 C100.51599884033203,182 182,100.51599884033203 182,0 C182,-100.51599884033203 100.51599884033203,-182 0,-182z"></path><path stroke-linecap="butt" stroke-linejoin="miter" fill-opacity="0" stroke-miterlimit="4" stroke="rgb(56,89,131)" stroke-opacity="1" stroke-width="0" d=" M0,-182 C-100.51599884033203,-182 -182,-100.51599884033203 -182,0 C-182,100.51599884033203 -100.51599884033203,182 0,182 C100.51599884033203,182 182,100.51599884033203 182,0 C182,-100.51599884033203 100.51599884033203,-182 0,-182z"></path></g></g><g transform="matrix(1,0,0,1,301.5,281)" opacity="1" style="display: block;"><g opacity="1" transform="matrix(1,0,0,1,0,0)"><path stroke-linecap="round" stroke-linejoin="round" fill-opacity="0" stroke="rgb(255,255,255)" stroke-opacity="1" stroke-width="25" d=" M-119,30 C-119,30 -62.380001068115234,79.82599639892578 -47.53099822998047,92.89299774169922"></path></g></g></g></svg>