<svg width="1072" height="605" viewBox="0 0 1072 605" fill="none" xmlns="http://www.w3.org/2000/svg">
<path d="M477.104 323V222.2H545.216V241.208H498.128V303.992H546.224V323H477.104ZM487.184 280.808V262.376H538.304V280.808H487.184ZM591.262 324.44C584.158 324.44 577.822 323.288 572.254 320.984C566.782 318.584 562.366 315.32 559.006 311.192L571.678 300.248C574.654 303.416 577.966 305.72 581.614 307.16C585.262 308.504 588.91 309.176 592.558 309.176C593.998 309.176 595.294 309.032 596.446 308.744C597.694 308.36 598.75 307.88 599.614 307.304C600.478 306.632 601.102 305.864 601.486 305C601.966 304.04 602.206 303.032 602.206 301.976C602.206 299.864 601.342 298.184 599.614 296.936C598.654 296.456 597.166 295.88 595.15 295.208C593.134 294.44 590.542 293.624 587.374 292.76C582.478 291.512 578.302 290.072 574.846 288.44C571.486 286.712 568.798 284.792 566.782 282.68C565.054 280.664 563.71 278.504 562.75 276.2C561.886 273.8 561.454 271.16 561.454 268.28C561.454 264.824 562.222 261.704 563.758 258.92C565.294 256.04 567.406 253.592 570.094 251.576C572.878 249.56 576.046 248.024 579.598 246.968C583.15 245.816 586.894 245.24 590.83 245.24C594.766 245.24 598.606 245.72 602.35 246.68C606.094 247.64 609.55 249.032 612.718 250.856C615.982 252.584 618.814 254.648 621.214 257.048L610.27 269.144C608.542 267.512 606.574 266.024 604.366 264.68C602.254 263.336 600.046 262.28 597.742 261.512C595.438 260.744 593.374 260.36 591.55 260.36C589.918 260.36 588.43 260.504 587.086 260.792C585.838 261.08 584.782 261.512 583.918 262.088C583.054 262.664 582.382 263.432 581.902 264.392C581.518 265.256 581.326 266.216 581.326 267.272C581.326 268.328 581.566 269.336 582.046 270.296C582.622 271.256 583.39 272.072 584.35 272.744C585.406 273.32 586.942 273.992 588.958 274.76C591.07 275.528 593.902 276.392 597.454 277.352C602.062 278.6 605.95 279.992 609.118 281.528C612.382 283.064 614.974 284.84 616.894 286.856C618.526 288.584 619.726 290.552 620.494 292.76C621.262 294.968 621.646 297.416 621.646 300.104C621.646 304.808 620.302 309.032 617.614 312.776C615.022 316.424 611.422 319.304 606.814 321.416C602.206 323.432 597.022 324.44 591.262 324.44ZM669.344 324.44C662.048 324.44 655.52 322.712 649.76 319.256C644 315.8 639.44 311.096 636.08 305.144C632.816 299.192 631.184 292.424 631.184 284.84C631.184 277.352 632.816 270.632 636.08 264.68C639.44 258.632 644 253.88 649.76 250.424C655.52 246.968 662.048 245.24 669.344 245.24C676.16 245.24 682.4 246.488 688.064 248.984C693.728 251.48 698.144 254.936 701.312 259.352L690.08 272.888C688.736 271.064 687.056 269.432 685.04 267.992C683.024 266.456 680.816 265.256 678.416 264.392C676.112 263.528 673.712 263.096 671.216 263.096C667.28 263.096 663.776 264.056 660.704 265.976C657.728 267.8 655.376 270.344 653.648 273.608C651.92 276.872 651.056 280.616 651.056 284.84C651.056 288.968 651.92 292.664 653.648 295.928C655.472 299.096 657.92 301.688 660.992 303.704C664.064 305.624 667.52 306.584 671.36 306.584C673.856 306.584 676.208 306.248 678.416 305.576C680.624 304.808 682.688 303.704 684.608 302.264C686.624 300.824 688.448 299.096 690.08 297.08L701.168 310.616C697.904 314.744 693.392 318.104 687.632 320.696C681.872 323.192 675.776 324.44 669.344 324.44ZM714.271 323V246.824H733.999L734.719 271.304L731.263 266.264C732.415 262.328 734.287 258.776 736.879 255.608C739.471 252.344 742.495 249.8 745.951 247.976C749.503 246.152 753.199 245.24 757.039 245.24C758.671 245.24 760.255 245.384 761.791 245.672C763.327 245.96 764.623 246.296 765.679 246.68L760.207 269.144C759.055 268.568 757.663 268.088 756.031 267.704C754.399 267.224 752.719 266.984 750.991 266.984C748.687 266.984 746.527 267.416 744.511 268.28C742.591 269.048 740.911 270.2 739.471 271.736C738.031 273.176 736.879 274.904 736.015 276.92C735.247 278.936 734.863 281.144 734.863 283.544V323H714.271ZM809.601 324.44C801.825 324.44 794.865 322.76 788.721 319.4C782.673 315.944 777.873 311.24 774.321 305.288C770.865 299.336 769.137 292.52 769.137 284.84C769.137 277.16 770.865 270.392 774.321 264.536C777.873 258.584 782.673 253.88 788.721 250.424C794.865 246.968 801.825 245.24 809.601 245.24C817.281 245.24 824.145 246.968 830.193 250.424C836.337 253.88 841.137 258.584 844.593 264.536C848.049 270.392 849.777 277.16 849.777 284.84C849.777 292.52 848.049 299.336 844.593 305.288C841.137 311.24 836.337 315.944 830.193 319.4C824.145 322.76 817.281 324.44 809.601 324.44ZM809.601 306.584C813.345 306.584 816.705 305.672 819.681 303.848C822.657 301.928 824.961 299.336 826.593 296.072C828.321 292.712 829.185 288.968 829.185 284.84C829.185 280.616 828.321 276.872 826.593 273.608C824.961 270.248 822.657 267.656 819.681 265.832C816.705 263.912 813.345 262.952 809.601 262.952C805.761 262.952 802.353 263.912 799.377 265.832C796.401 267.752 794.049 270.344 792.321 273.608C790.593 276.872 789.777 280.616 789.873 284.84C789.777 288.968 790.593 292.712 792.321 296.072C794.049 299.336 796.401 301.928 799.377 303.848C802.353 305.672 805.761 306.584 809.601 306.584ZM879.773 323L854.285 246.824H875.597L891.149 298.664L887.981 298.232L905.117 257.768H917.213L935.069 298.376L931.613 298.664L947.165 246.824H968.477L942.557 323H927.725L909.725 279.656L912.029 279.944L894.461 323H879.773Z" fill="black"/>
<path d="M562.152 510L601.608 409.2H620.904L660.216 510H638.04L617.736 455.712C617.16 454.176 616.44 452.208 615.576 449.808C614.808 447.408 613.992 444.864 613.128 442.176C612.264 439.488 611.448 436.944 610.68 434.544C609.912 432.048 609.336 429.984 608.952 428.352L612.84 428.208C612.264 430.416 611.592 432.72 610.824 435.12C610.152 437.424 609.432 439.824 608.664 442.32C607.896 444.72 607.08 447.072 606.216 449.376C605.352 451.68 604.536 453.936 603.768 456.144L583.464 510H562.152ZM580.44 488.832L587.496 471.408H633.72L640.92 488.832H580.44ZM674.581 510V428.496C674.581 423.792 675.637 419.52 677.749 415.68C679.861 411.84 682.741 408.816 686.389 406.608C690.133 404.4 694.501 403.296 699.493 403.296C702.853 403.296 706.021 403.872 708.997 405.024C711.973 406.08 714.517 407.568 716.629 409.488L710.581 424.464C709.333 423.696 708.037 423.072 706.693 422.592C705.445 422.016 704.293 421.728 703.237 421.728C701.413 421.728 699.877 422.064 698.629 422.736C697.477 423.312 696.613 424.224 696.037 425.472C695.461 426.624 695.173 428.112 695.173 429.936V510H684.949C682.741 510 680.773 510 679.045 510C677.317 510 675.829 510 674.581 510ZM663.205 452.976V435.696H711.589V452.976H663.205ZM725.208 510V433.824H744.936L745.656 458.304L742.2 453.264C743.352 449.328 745.224 445.776 747.816 442.608C750.408 439.344 753.432 436.8 756.888 434.976C760.44 433.152 764.136 432.24 767.976 432.24C769.608 432.24 771.192 432.384 772.728 432.672C774.264 432.96 775.56 433.296 776.616 433.68L771.144 456.144C769.992 455.568 768.6 455.088 766.968 454.704C765.336 454.224 763.656 453.984 761.928 453.984C759.624 453.984 757.464 454.416 755.448 455.28C753.528 456.048 751.848 457.2 750.408 458.736C748.968 460.176 747.816 461.904 746.952 463.92C746.184 465.936 745.8 468.144 745.8 470.544V510H725.208ZM790.077 510V433.824H810.525V510H790.077ZM800.157 418.128C796.221 418.128 793.149 417.168 790.941 415.248C788.733 413.328 787.629 410.592 787.629 407.04C787.629 403.776 788.733 401.136 790.941 399.12C793.245 397.008 796.317 395.952 800.157 395.952C804.093 395.952 807.165 396.96 809.373 398.976C811.581 400.896 812.685 403.584 812.685 407.04C812.685 410.4 811.533 413.088 809.229 415.104C807.021 417.12 803.997 418.128 800.157 418.128ZM865.485 511.44C858.189 511.44 851.661 509.712 845.901 506.256C840.141 502.8 835.581 498.096 832.221 492.144C828.957 486.192 827.325 479.424 827.325 471.84C827.325 464.352 828.957 457.632 832.221 451.68C835.581 445.632 840.141 440.88 845.901 437.424C851.661 433.968 858.189 432.24 865.485 432.24C872.301 432.24 878.541 433.488 884.205 435.984C889.869 438.48 894.285 441.936 897.453 446.352L886.221 459.888C884.877 458.064 883.197 456.432 881.181 454.992C879.165 453.456 876.957 452.256 874.557 451.392C872.253 450.528 869.853 450.096 867.357 450.096C863.421 450.096 859.917 451.056 856.845 452.976C853.869 454.8 851.517 457.344 849.789 460.608C848.061 463.872 847.197 467.616 847.197 471.84C847.197 475.968 848.061 479.664 849.789 482.928C851.613 486.096 854.061 488.688 857.133 490.704C860.205 492.624 863.661 493.584 867.501 493.584C869.997 493.584 872.349 493.248 874.557 492.576C876.765 491.808 878.829 490.704 880.749 489.264C882.765 487.824 884.589 486.096 886.221 484.08L897.309 497.616C894.045 501.744 889.533 505.104 883.773 507.696C878.013 510.192 871.917 511.44 865.485 511.44ZM938.924 511.44C932.588 511.44 926.876 509.712 921.788 506.256C916.7 502.8 912.668 498.096 909.691 492.144C906.715 486.192 905.228 479.376 905.228 471.696C905.228 464.016 906.715 457.248 909.691 451.392C912.764 445.44 916.892 440.784 922.076 437.424C927.26 433.968 933.164 432.24 939.788 432.24C943.532 432.24 946.94 432.816 950.012 433.968C953.18 435.024 955.916 436.512 958.22 438.432C960.62 440.352 962.636 442.56 964.268 445.056C965.9 447.552 967.052 450.24 967.724 453.12L963.404 452.4V433.824H983.708V510H963.116V491.712L967.724 491.28C966.956 493.968 965.708 496.512 963.98 498.912C962.252 501.312 960.092 503.472 957.5 505.392C955.004 507.216 952.172 508.704 949.004 509.856C945.836 510.912 942.476 511.44 938.924 511.44ZM944.54 493.728C948.38 493.728 951.74 492.816 954.62 490.992C957.5 489.168 959.708 486.624 961.244 483.36C962.876 480 963.692 476.112 963.692 471.696C963.692 467.376 962.876 463.584 961.244 460.32C959.708 457.056 957.5 454.512 954.62 452.688C951.74 450.768 948.38 449.808 944.54 449.808C940.796 449.808 937.484 450.768 934.604 452.688C931.82 454.512 929.612 457.056 927.98 460.32C926.348 463.584 925.532 467.376 925.532 471.696C925.532 476.112 926.348 480 927.98 483.36C929.612 486.624 931.82 489.168 934.604 490.992C937.484 492.816 940.796 493.728 944.54 493.728Z" fill="black"/>
<path d="M354.614 455.542C326.294 501.887 275.321 532.807 217.145 532.807C128.168 532.807 56.0375 460.477 56.0375 371.253C56.0375 282.029 128.168 209.699 217.145 209.699C306.123 209.699 378.253 282.029 378.253 371.253C378.253 378.395 377.791 385.428 376.895 392.325H433.287C433.951 385.391 434.291 378.362 434.291 371.253C434.291 250.995 337.071 153.506 217.145 153.506C97.2193 153.506 0 250.995 0 371.253C0 491.511 97.2193 589 217.145 589C307.269 589 384.57 533.944 417.423 455.542H354.614Z" fill="#355DFF"/>
<path d="M259.174 302.036V80.7771C259.174 63.3203 245.061 49.1687 227.652 49.1687C210.244 49.1687 196.131 63.3202 196.131 80.7771V365.253H147.098V80.7771C147.098 36.1651 183.164 0 227.652 0C272.141 0 308.206 36.1651 308.206 80.7771V302.036H259.174Z" fill="#355DFF"/>
<path d="M147.098 336.133H427.286V392.325H175.117C159.643 392.325 147.098 379.746 147.098 364.229V336.133Z" fill="#355DFF"/>
</svg>
